simulation
nRows=61
nColumns=15
endheader
time  TH_x TH_y TH_z SC_y  SC_z  SC_x  AC_y  AC_z  AC_x  GH_y  GH_z  GH_yy  EL_x  PS_y
0.750000  0.000000  0.000000  0.000000  -29.557190  12.768584  10.854066  56.412583  -6.307873  3.823582  19.698682  42.508301  -13.556708  17.096022  126.761166
0.750206  0.000000  0.000000  0.000000  -24.698359  12.328108  10.854066  47.165651  12.365760  -2.884496  17.069689  43.142882  -15.785394  20.910629  131.861081
0.750412  0.000000  0.000000  0.000000  -36.665809  -4.504866  10.854066  56.460847  4.472687  -11.340702  27.705996  38.871180  -26.243778  29.294331  122.907123
0.750618  0.000000  0.000000  0.000000  -34.611242  -1.545859  10.854066  51.607606  -2.715670  -14.796362  33.711330  42.359883  -12.604798  15.564815  124.202162
0.750824  0.000000  0.000000  0.000000  -18.197858  5.591957  10.854066  56.623578  13.211919  -6.273918  25.277347  39.464411  -25.046352  28.941215  123.065762
0.751031  0.000000  0.000000  0.000000  -22.842750  -10.311226  10.854066  66.898035  17.994274  -1.005904  12.158919  32.074900  -26.408795  20.735145  118.412200
0.751237  0.000000  0.000000  0.000000  -41.416466  -6.254733  10.854066  59.089491  -1.797253  -11.915854  32.290669  40.102482  -13.092847  18.740777  128.107665
0.751443  0.000000  0.000000  0.000000  -32.236299  -1.288998  16.187399  58.611382  -0.060125  -12.838500  25.450411  37.514833  -22.296802  19.433617  126.008588
0.751649  0.000000  0.000000  0.000000  -19.339110  0.970594  16.187399  45.779733  -7.303265  -15.055799  20.425379  47.405622  -28.563123  18.113872  120.691092
0.751855  0.000000  0.000000  0.000000  -42.639991  9.941599  16.187399  52.990902  2.468896  -8.805887  23.367227  38.122584  -27.060774  26.099903  132.625085
0.752061  0.000000  0.000000  0.000000  -45.533693  -6.140020  16.187399  69.484268  3.659429  -7.837214  19.119758  37.650189  -25.913611  15.543202  129.549268
0.752267  0.000000  0.000000  0.000000  -21.026321  -8.585082  16.187399  46.905521  -14.891101  -17.199346  28.001626  31.663383  -17.102852  23.677100  129.143672
0.752473  0.000000  0.000000  0.000000  -21.052941  10.857668  16.187399  56.572590  0.083040  -2.009461  15.870622  38.460282  -17.582951  23.771808  125.486550
0.752679  0.000000  0.000000  0.000000  -42.347812  12.235660  16.187399  45.437145  -4.002477  -13.713055  35.605085  44.193562  -18.400324  15.161874  135.987265
0.752885  0.000000  0.000000  0.000000  -32.236299  -1.288998  21.520733  58.497819  -4.611089  -15.622406  25.450411  37.514833  -22.296802  19.433617  126.008588
0.753092  0.000000  0.000000  0.000000  -23.622741  -13.055577  21.520733  72.734414  6.882859  -4.205649  13.193235  45.877755  -24.233918  21.390341  132.436301
0.753298  0.000000  0.000000  0.000000  -35.184413  -8.142554  21.520733  52.958432  -11.516579  -24.784359  11.706873  29.829789  -23.973681  22.058934  129.549499
0.753504  0.000000  0.000000  0.000000  -26.341895  1.421601  21.520733  64.163838  8.659726  -10.708329  17.406352  37.238131  -29.634296  9.794574  119.295819
0.753710  0.000000  0.000000  0.000000  -19.593326  10.893286  21.520733  44.285328  -1.192577  -6.406331  22.739085  34.361809  -32.031838  13.093254  123.697578
0.753916  0.000000  0.000000  0.000000  -20.054512  13.193711  21.520733  51.652862  -6.162283  -11.024380  36.171275  35.427262  -20.848701  13.874687  126.294739
0.754122  0.000000  0.000000  0.000000  -21.178342  0.776692  21.520733  57.340150  2.858150  -11.939286  39.235308  33.611258  -26.445164  13.043720  123.663575
0.754328  0.000000  0.000000  0.000000  -32.236299  -1.288998  26.854066  58.159646  -9.151076  -18.442229  25.450411  37.514833  -22.296802  19.433617  126.008588
0.754534  0.000000  0.000000  0.000000  -35.224370  -9.237556  26.854066  57.318696  -17.851536  -20.062725  20.659414  36.606603  -16.706135  12.471464  125.451575
0.754740  0.000000  0.000000  0.000000  -40.658464  7.174614  26.854066  54.720239  -12.975938  -13.000940  20.657510  45.345039  -22.320468  17.187206  124.914395
0.754946  0.000000  0.000000  0.000000  -21.804824  -10.368690  26.854066  66.538892  -18.589901  -3.881385  22.661524  30.216298  -20.621089  18.645131  128.845559
0.755153  0.000000  0.000000  0.000000  -35.526175  6.563339  26.854066  45.449880  -11.397958  -16.806565  14.863153  34.814913  -14.433576  25.245397  121.817788
0.755359  0.000000  0.000000  0.000000  -26.472938  10.632059  26.854066  45.238025  -8.711373  -7.450800  13.870467  28.117786  -18.027443  18.741829  125.841657
0.755565  0.000000  0.000000  0.000000  -18.464528  -4.614588  26.854066  72.878511  4.306559  -6.909840  35.879281  29.828033  -27.425035  20.649073  124.435836
0.755771  0.000000  0.000000  0.000000  -22.922870  -12.094747  26.854066  55.536178  -13.475576  -22.673542  32.921374  40.912326  -23.281172  9.737997  123.586294
0.755977  0.000000  0.000000  0.000000  -32.156307  -1.525047  5.933959  58.141606  7.672643  -7.835296  25.627583  36.371882  -22.035509  19.476679  126.173081
0.756183  0.000000  0.000000  0.000000  -32.156307  -1.525047  -6.066041  56.675552  17.794583  -1.217005  25.627583  36.371882  -22.035509  19.476679  126.173081
0.756389  0.000000  0.000000  0.000000  -46.210791  -0.021747  -6.066041  57.483877  25.249344  3.186241  12.919179  40.916481  -16.248246  18.089593  130.118587
0.756595  0.000000  0.000000  0.000000  -25.224273  -6.311802  -6.066041  71.321569  25.739192  9.641110  21.806023  31.515603  -17.123890  21.054528  132.372696
0.756801  0.000000  0.000000  0.000000  -24.887277  -12.929122  -6.066041  63.256240  10.172779  7.193776  24.597298  29.817673  -18.453015  26.685877  120.188670
0.757007  0.000000  0.000000  0.000000  -21.786621  -0.149044  -6.066041  69.126802  29.243342  9.424035  22.081469  32.296323  -18.160543  26.220964  117.213579
0.757214  0.000000  0.000000  0.000000  -23.842769  4.795837  -6.066041  55.527403  5.185944  9.351930  13.547496  39.922471  -16.025456  10.876317  119.891277
0.757420  0.000000  0.000000  0.000000  -21.005269  -13.913226  -6.066041  63.896740  18.180025  -5.523278  20.984601  39.269659  -22.111966  20.953837  130.890824
0.757626  0.000000  0.000000  0.000000  -39.884269  11.386074  -6.066041  46.791126  10.337424  1.927062  22.319758  37.282612  -13.265947  27.182207  124.754693
0.757832  0.000000  0.000000  0.000000  -23.615763  -6.483763  -6.066041  71.568248  27.000394  7.630802  26.684948  32.236019  -29.735925  14.851436  133.693338
0.758038  0.000000  0.000000  0.000000  -32.156307  -1.525047  -0.732708  57.483010  13.316593  -4.225022  25.627583  36.371882  -22.035509  19.476679  126.173081
0.758244  0.000000  0.000000  0.000000  -23.570475  6.169714  -0.732708  47.527071  1.936561  -3.625390  33.244843  28.370660  -29.030071  11.407326  119.225433
0.758450  0.000000  0.000000  0.000000  -45.319231  -11.875965  -0.732708  66.254844  25.842992  -0.066581  37.040827  31.086705  -22.087276  18.494834  126.796187
0.758656  0.000000  0.000000  0.000000  -18.861278  -4.124353  -0.732708  62.002823  0.476813  8.224282  13.995684  33.645316  -25.969865  12.100992  135.554105
0.758862  0.000000  0.000000  0.000000  -26.360625  -6.276765  -0.732708  47.232609  0.243811  -0.258725  34.763995  45.235165  -23.031434  17.642846  117.573248
0.759068  0.000000  0.000000  0.000000  -19.173586  -9.857689  -0.732708  70.963140  6.961100  6.140458  33.930770  38.448842  -30.214215  21.250713  130.101792
0.759275  0.000000  0.000000  0.000000  -30.303899  11.764050  -0.732708  47.075336  4.911909  -0.584106  16.646568  41.648275  -13.396564  11.268183  136.036078
0.759481  0.000000  0.000000  0.000000  -32.156307  -1.525047  4.600626  58.039558  8.804504  -7.123188  25.627583  36.371882  -22.035509  19.476679  126.173081
0.759687  0.000000  0.000000  0.000000  -25.831332  0.799785  4.600626  51.632835  2.256148  -4.543387  40.489508  30.262983  -17.499971  21.262386  116.814903
0.759893  0.000000  0.000000  0.000000  -38.907895  12.057098  4.600626  49.477722  12.407638  1.677152  28.303001  27.720004  -24.796056  20.188532  117.639994
0.760099  0.000000  0.000000  0.000000  -41.153800  5.584762  4.600626  44.842047  -2.909718  1.202732  38.314430  38.268162  -23.497799  29.397603  133.307161
0.760305  0.000000  0.000000  0.000000  -26.978229  12.113796  4.600626  45.889540  9.585977  1.342082  14.405603  30.766571  -25.076495  27.424687  132.379716
0.760511  0.000000  0.000000  0.000000  -43.314834  1.443698  4.600626  50.477148  8.031209  2.045755  34.757518  28.170970  -30.125631  12.490875  116.236694
0.760717  0.000000  0.000000  0.000000  -19.321989  -13.970645  4.600626  63.979920  12.591304  -2.522606  35.576046  40.860407  -14.633065  20.551668  120.657265
0.760923  0.000000  0.000000  0.000000  -32.156307  -1.525047  9.933959  58.361863  4.270781  -9.951223  25.627583  36.371882  -22.035509  19.476679  126.173081
0.761129  0.000000  0.000000  0.000000  -27.343963  3.901406  9.933959  50.117288  -5.862214  -8.207330  19.030711  44.408403  -31.818045  15.270249  134.101523
0.761336  0.000000  0.000000  0.000000  -36.057255  0.098195  9.933959  56.417261  3.309409  0.016468  19.960800  38.291366  -21.085494  11.403870  131.623250
0.761542  0.000000  0.000000  0.000000  -43.012322  7.967193  9.933959  50.352183  -6.666903  2.795196  39.400870  40.230087  -16.602305  11.855385  129.021697
0.761748  0.000000  0.000000  0.000000  -22.478675  12.404423  9.933959  59.043249  8.297688  4.241086  18.976578  43.702794  -29.286770  16.036077  131.218708
0.761954  0.000000  0.000000  0.000000  -43.792548  5.259850  9.933959  50.803824  -2.359550  -1.008209  29.236190  27.442762  -18.468765  13.919416  129.011049
0.762160  0.000000  0.000000  0.000000  -28.410085  -3.448151  9.933959  61.855586  12.266214  -6.020459  17.460372  35.317688  -12.656197  22.761990  119.157695
0.762366  0.000000  0.000000  0.000000  -21.615537  -13.420140  9.933959  64.066927  -9.530961  -5.526035  26.366937  41.366282  -22.229774  15.780176  128.723294
